<svg width="1080" height="1820" viewBox="0 0 1080 1820" fill="none" xmlns="http://www.w3.org/2000/svg">
<g opacity="0.51">
<path d="M-35.8131 3.08401C338.702 2.68468 713.236 3.88268 1087.75 3.08401C1087.3 608.742 1087.3 1214.4 1087.75 1820.06C713.236 1821.06 338.702 1818.53 -35.8131 1820.06C-35.0342 1214.4 -36.4946 608.742 -35.8131 3.08401Z" stroke="url(#paint0_radial_2027_481)" stroke-width="5" stroke-miterlimit="10"/>
<path d="M-35.8171 1654.86C16.7587 1666.35 24.3335 1722.72 64.7389 1768.28C110.616 1820.06 156.961 1773.47 196.529 1726.55C243.497 1670.74 294.807 1568.61 355.172 1555.23C405.956 1543.98 463.828 1603.62 507.641 1638.86C554.375 1676.46 606.776 1729.24 660.189 1722.75C716.796 1715.9 770.423 1657.19 821.032 1618.79C866.753 1584.08 917.324 1547.04 967.874 1574.5C1012.66 1598.86 1037.98 1647.71 1087.75 1654.9" stroke="url(#paint1_radial_2027_481)" stroke-width="5" stroke-miterlimit="10"/>
<path d="M-35.8171 1489.8C18.7059 1502.45 -19.7328 1686.14 -12.7811 1740.09C5.83459 1884.28 91.241 1690.87 111.142 1645.78C147.283 1563.88 179.296 1476.46 216.8 1396.19C236.681 1353.66 262.463 1283.75 294.826 1269.14C351.666 1243.51 446.342 1403.42 485.073 1453.8C532.449 1515.4 610.554 1656.43 675.709 1639.82C705.716 1632.17 742.869 1582.75 766.061 1554.86C804.11 1509.04 840.232 1458.69 877.444 1410.97C905.854 1374.36 997.823 1233.86 1036.65 1312.13C1060.31 1359.82 1031.22 1488.87 1087.86 1489.54" stroke="url(#paint2_radial_2027_481)" stroke-width="5" stroke-miterlimit="10"/>
<path d="M-35.8171 1324.64C13.6236 1346.04 14.6751 1405.51 48.7131 1459.05C93.4998 1529.5 139.338 1453.56 173.668 1397.19C214.755 1329.77 264.975 1189.57 326.157 1167.94C377.935 1149.63 458.045 1230.43 503.669 1262.68C556.147 1299.72 622.996 1368.47 681.492 1358.42C740.669 1348.24 799.028 1284.54 852.383 1244.54C891.328 1215.32 958.118 1151.36 1000.37 1198.42C1039.59 1242.15 1034.86 1307.47 1088 1324.44" stroke="url(#paint3_radial_2027_481)" stroke-width="5" stroke-miterlimit="10"/>
<path d="M-35.711 1159.12C36.8241 1138.43 103.907 1091.27 174.495 1057.66C225.299 1033.43 257.136 1025.08 304.24 1065.85C332.358 1090.17 362.658 1130.94 395.216 1136.5C442.534 1144.58 501.828 1079.66 542.876 1046.64C584.508 1013.2 642.867 945.38 690.672 956.795C731.564 966.612 767.588 1033.87 798.822 1074.03C841.487 1128.87 871.358 1137.43 923.446 1141.59C978.573 1146.01 1032.3 1160.85 1087.7 1159.29" stroke="url(#paint4_radial_2027_481)" stroke-width="5" stroke-miterlimit="10"/>
<path d="M-35.8171 994.13C75.8188 967.94 202.02 746.642 308.282 885.211C343.04 930.536 378.519 1012.03 425.506 1020.92C473.856 1030.04 519.889 956.859 554.531 910.003C590.614 861.185 634.66 789.804 684.452 800.852C721.917 809.171 749.334 859.488 778.601 894.662C819.026 943.182 851.019 942.782 898.669 951.501C962.461 963.182 1023.29 993.831 1087.77 994.23" stroke="url(#paint5_radial_2027_481)" stroke-width="5" stroke-miterlimit="10"/>
<path d="M-35.8171 828.997C18.0633 817.716 48.9078 759.979 96.3818 722.275C155.559 675.286 208.972 725.07 263.748 770.495C333.051 827.899 415.011 936.884 494.595 949.663C534.825 956.152 553.713 918.215 576.204 868.298C601.304 812.558 617.369 799.646 655.847 782.708C692.26 766.701 712.025 723.04 739.189 682.408C777.784 624.737 811.237 617.017 859.451 650.594C937.77 705.137 1003.55 799.979 1087.71 828.964" stroke="url(#paint6_radial_2027_481)" stroke-width="5" stroke-miterlimit="10"/>
<path d="M-35.8171 663.712C11.7932 651.866 46.2595 609.802 90.3453 581.117C151.022 541.682 204.61 588.005 261.489 630.202C336.322 685.709 422.137 781.783 505.188 798.155C540.569 805.144 554.064 781.516 571.063 736.391C590.302 685.41 600.817 687.673 633.57 670.801C679.447 647.173 705.17 566.674 734.476 507.739C773.071 430.068 805.279 403.18 862.021 450.102C940.671 515.16 999.965 632.831 1087.77 663.779" stroke="url(#paint7_radial_2027_481)" stroke-width="5" stroke-miterlimit="10"/>
<path d="M-35.8171 498.681C86.295 505.969 214.619 497.084 335.641 525.303C386.405 537.184 440.383 537.783 489.473 554.921C587.576 589.13 683.614 468.731 768.904 397.483C819.24 355.42 896.449 273.889 953.017 330.361C1005.26 382.441 1023.78 478.614 1087.75 498.615" stroke="url(#paint8_radial_2027_481)" stroke-width="5" stroke-miterlimit="10"/>
<path d="M-35.8171 333.457C60.4355 344.339 155.014 378.283 250.526 400.013C278.547 406.403 351.277 444.106 372.638 391.827C386.581 357.684 371.295 340.679 404.943 334.056C437.638 327.634 438.436 346.103 450.665 380.645C464.51 419.714 464.51 430.562 499.502 425.837C538.875 420.379 585.434 386.602 621.77 365.038C677.227 332.16 732.043 296.253 787.286 262.076C834.507 232.825 946.201 132.292 998.056 193.191C1038.77 241.078 1031.69 314.422 1087.79 333.391" stroke="url(#paint9_radial_2027_481)" stroke-width="5" stroke-miterlimit="10"/>
<path d="M-35.8171 168.233C78.4476 173.657 200.93 233.124 314.318 194.655C376.63 173.49 429.615 159.015 492.336 189.364C590.555 236.885 684.997 176.253 781.094 135.687C835.617 112.625 894.034 83.6734 950.505 104.705C998.738 122.875 1037.12 162.808 1087.75 168.266" stroke="url(#paint10_radial_2027_481)" stroke-width="5" stroke-miterlimit="10"/>
<path d="M985.611 3.07697C992.465 157.42 1057.11 262.944 1006.49 417.82C985.825 481.048 958.583 535.157 954.202 609.933C949.528 689.8 962.906 778.452 969.877 856.988C977.666 944.01 978.796 1033.76 986.935 1119.88C992.348 1177.19 1012.93 1211.8 1029.77 1259.85C1088.52 1427.67 995.269 1644.91 985.63 1819.92" stroke="url(#paint11_radial_2027_481)" stroke-width="5" stroke-miterlimit="10"/>
<path d="M883.506 3.07697C895.559 90.9639 932.187 81.2135 963.499 136.355C1003.63 207.037 966.868 273.26 928.974 314.658C891.86 355.191 823.823 391.696 813.717 475.357C802.695 565.707 835.915 702.279 848.241 789.567C857.413 854.625 867.266 919.517 874.549 985.274C878.988 1025.51 876.749 1080.38 887.303 1116.52C904.556 1175.52 949.42 1165.67 981.2 1184.34C1046.22 1222.55 1022.77 1307.97 998.881 1394.96C960.052 1536.42 903.835 1665.97 883.525 1820.05" stroke="url(#paint12_radial_2027_481)" stroke-width="5" stroke-miterlimit="10"/>
<path d="M781.402 3.07697C788.899 130.997 825.235 271.663 780.915 388.635C761.793 439.051 736.128 482.678 731.864 545.407C726.392 624.775 749.272 714.159 763.02 788.336C779.143 875.291 785.433 959.584 797.72 1046.67C807.729 1117.72 838.184 1175.42 860.675 1235.69C893.603 1323.94 895.725 1386.21 870.236 1481.65C839.703 1595.72 795.13 1694.63 781.383 1820.02" stroke="url(#paint13_radial_2027_481)" stroke-width="5" stroke-miterlimit="10"/>
<path d="M679.063 3.07697C659.785 125.706 610.15 215.19 573.912 323.244C543.398 414.425 541.139 475.823 588.263 544.974C619.964 591.564 658.968 624.841 671.781 697.72C679.239 740.116 677.194 759.75 696.472 791.231C720.228 830.033 719.624 855.79 719.118 913.893C717.852 1054.83 718.359 1195.72 718.592 1336.52C718.768 1432.73 729.516 1562.11 710.628 1656.52C698.653 1716.42 680.602 1753.03 679.063 1819.95" stroke="url(#paint14_radial_2027_481)" stroke-width="5" stroke-miterlimit="10"/>
<path d="M576.974 3.07697C559.858 126.638 510.612 219.017 475.97 328.535C444.25 429.034 447.852 487.77 497.215 562.146C533.297 616.555 584.238 662.379 597.265 747.038C601.159 772.462 602.094 802.013 605.677 827.271C627.72 982.379 600.341 1160.42 589.3 1316.82C577.383 1485.67 581.765 1651.2 577.111 1820.08" stroke="url(#paint15_radial_2027_481)" stroke-width="5" stroke-miterlimit="10"/>
<path d="M474.957 3.07697C474.529 98.4847 459.262 186.904 450.733 280.349C441.27 384.775 453.635 461.38 484.109 552.429C523.697 670.798 616.522 846.705 525.177 950.799C491.197 989.501 492.385 1006.71 480.507 1072.26C470.128 1129.5 441.367 1159.75 419.032 1202.65C380.476 1276.69 390.076 1341.15 406.297 1431.66C429.664 1561.45 462.865 1684.74 474.879 1819.88" stroke="url(#paint16_radial_2027_481)" stroke-width="5" stroke-miterlimit="10"/>
<path d="M372.713 3.07697C371.642 93.8591 380.502 181.613 384.708 271.73C389.401 370.698 394.795 452.096 414.014 547.204C432.669 639.584 466.96 745.574 469.082 844.442C470.309 901.813 448.987 935.091 424.88 967.571C391.776 1012.16 392.575 1036.69 377.523 1099.72C363.658 1157.82 322.629 1166.74 293.791 1195.96C240.202 1250.23 256.014 1325.14 277.22 1413.69C309.856 1549.9 360.289 1671.86 372.81 1819.68" stroke="url(#paint17_radial_2027_481)" stroke-width="5" stroke-miterlimit="10"/>
<path d="M270.67 3.07697C284.126 119.017 326.478 207.47 355.921 311.863C381.099 401.114 380.904 460.382 338.064 527.503C309.888 571.663 265.237 611.064 258.227 681.946C252.872 735.99 275.616 791.065 291.817 833.594C313.938 891.597 330.626 941.514 320.812 1012.23C302.001 1147.84 225.65 1274.29 180.337 1384.88C150.447 1457.92 76.9965 1603.08 143.047 1675.66C187.737 1724.81 250.458 1725.08 270.553 1820.22" stroke="url(#paint18_radial_2027_481)" stroke-width="5" stroke-miterlimit="10"/>
<path d="M168.534 3.07697C188.435 132.162 247.573 221.047 288.504 330.898C300.324 362.578 324.743 422.046 314.422 464.642C305.406 501.913 267.688 513.194 249.053 519.417C210.497 532.262 117.614 521.746 102.717 602.612C90.8194 667.371 151.028 736.888 174.181 769.867C214.781 827.704 252.539 872.163 239.804 968.469C230.729 1036.99 203.137 1103.54 183.119 1164.58C148.322 1270.97 110.428 1374.13 74.5599 1479.22C59.605 1523.08 -54.8934 1789.27 28.449 1805.18C60.0334 1811.2 159.304 1732.73 168.437 1820.15" stroke="url(#paint19_radial_2027_481)" stroke-width="5" stroke-miterlimit="10"/>
<path d="M66.313 3.07697C75.8351 161.746 179.137 366.305 103.019 509.766C76.5945 559.683 41.6218 594.093 36.6369 666.772C32.3335 730.432 53.0328 793.427 68.8834 848.336C88.3559 915.557 105.024 975.457 98.91 1052.06C89.5048 1170.17 49.7224 1285.24 23.5514 1393.99C5.14982 1470.53 -31.2443 1590.33 2.91049 1669.97C28.9842 1730.73 59.3808 1735.19 66.3325 1820.08" stroke="url(#paint20_radial_2027_481)" stroke-width="5" stroke-miterlimit="10"/>
</g>
<defs>
<radialGradient id="paint0_radial_2027_481" cx="0" cy="0" r="1" gradientUnits="userSpaceOnUse" gradientTransform="translate(525.875 911.649) rotate(90) scale(908.649 561.875)">
<stop stop-color="#0B0928"/>
<stop offset="1" stop-color="#2C2763"/>
</radialGradient>
<radialGradient id="paint1_radial_2027_481" cx="0" cy="0" r="1" gradientUnits="userSpaceOnUse" gradientTransform="translate(525.965 1672.42) rotate(90) scale(118.576 561.782)">
<stop stop-color="#0B0928"/>
<stop offset="1" stop-color="#2C2763"/>
</radialGradient>
<radialGradient id="paint2_radial_2027_481" cx="0" cy="0" r="1" gradientUnits="userSpaceOnUse" gradientTransform="translate(526.023 1529.51) rotate(90) scale(263.131 561.84)">
<stop stop-color="#0B0928"/>
<stop offset="1" stop-color="#2C2763"/>
</radialGradient>
<radialGradient id="paint3_radial_2027_481" cx="0" cy="0" r="1" gradientUnits="userSpaceOnUse" gradientTransform="translate(526.091 1326.36) rotate(90) scale(161.093 561.909)">
<stop stop-color="#0B0928"/>
<stop offset="1" stop-color="#2C2763"/>
</radialGradient>
<radialGradient id="paint4_radial_2027_481" cx="0" cy="0" r="1" gradientUnits="userSpaceOnUse" gradientTransform="translate(525.993 1057.46) rotate(90) scale(101.945 561.704)">
<stop stop-color="#0B0928"/>
<stop offset="1" stop-color="#2C2763"/>
</radialGradient>
<radialGradient id="paint5_radial_2027_481" cx="0" cy="0" r="1" gradientUnits="userSpaceOnUse" gradientTransform="translate(525.975 910.702) rotate(90) scale(110.994 561.792)">
<stop stop-color="#0B0928"/>
<stop offset="1" stop-color="#2C2763"/>
</radialGradient>
<radialGradient id="paint6_radial_2027_481" cx="0" cy="0" r="1" gradientUnits="userSpaceOnUse" gradientTransform="translate(525.946 790.527) rotate(90) scale(159.86 561.763)">
<stop stop-color="#0B0928"/>
<stop offset="1" stop-color="#2C2763"/>
</radialGradient>
<radialGradient id="paint7_radial_2027_481" cx="0" cy="0" r="1" gradientUnits="userSpaceOnUse" gradientTransform="translate(525.975 613.148) rotate(90) scale(186.218 561.792)">
<stop stop-color="#0B0928"/>
<stop offset="1" stop-color="#2C2763"/>
</radialGradient>
<radialGradient id="paint8_radial_2027_481" cx="0" cy="0" r="1" gradientUnits="userSpaceOnUse" gradientTransform="translate(525.965 436.001) rotate(90) scale(124.908 561.782)">
<stop stop-color="#0B0928"/>
<stop offset="1" stop-color="#2C2763"/>
</radialGradient>
<radialGradient id="paint9_radial_2027_481" cx="0" cy="0" r="1" gradientUnits="userSpaceOnUse" gradientTransform="translate(525.984 300.411) rotate(90) scale(126.46 561.802)">
<stop stop-color="#0B0928"/>
<stop offset="1" stop-color="#2C2763"/>
</radialGradient>
<radialGradient id="paint10_radial_2027_481" cx="0" cy="0" r="1" gradientUnits="userSpaceOnUse" gradientTransform="translate(525.965 152.478) rotate(90) scale(55.0528 561.782)">
<stop stop-color="#0B0928"/>
<stop offset="1" stop-color="#2C2763"/>
</radialGradient>
<radialGradient id="paint11_radial_2027_481" cx="0" cy="0" r="1" gradientUnits="userSpaceOnUse" gradientTransform="translate(1001.15 911.497) rotate(90) scale(908.42 47.9176)">
<stop stop-color="#0B0928"/>
<stop offset="1" stop-color="#2C2763"/>
</radialGradient>
<radialGradient id="paint12_radial_2027_481" cx="0" cy="0" r="1" gradientUnits="userSpaceOnUse" gradientTransform="translate(917.463 911.564) rotate(90) scale(908.487 105.953)">
<stop stop-color="#0B0928"/>
<stop offset="1" stop-color="#2C2763"/>
</radialGradient>
<radialGradient id="paint13_radial_2027_481" cx="0" cy="0" r="1" gradientUnits="userSpaceOnUse" gradientTransform="translate(809.308 911.547) rotate(90) scale(908.47 78.2733)">
<stop stop-color="#0B0928"/>
<stop offset="1" stop-color="#2C2763"/>
</radialGradient>
<radialGradient id="paint14_radial_2027_481" cx="0" cy="0" r="1" gradientUnits="userSpaceOnUse" gradientTransform="translate(636.796 911.514) rotate(90) scale(908.437 85)">
<stop stop-color="#0B0928"/>
<stop offset="1" stop-color="#2C2763"/>
</radialGradient>
<radialGradient id="paint15_radial_2027_481" cx="0" cy="0" r="1" gradientUnits="userSpaceOnUse" gradientTransform="translate(534.743 911.581) rotate(90) scale(908.504 79.2751)">
<stop stop-color="#0B0928"/>
<stop offset="1" stop-color="#2C2763"/>
</radialGradient>
<radialGradient id="paint16_radial_2027_481" cx="0" cy="0" r="1" gradientUnits="userSpaceOnUse" gradientTransform="translate(478.105 911.481) rotate(90) scale(908.404 85.9989)">
<stop stop-color="#0B0928"/>
<stop offset="1" stop-color="#2C2763"/>
</radialGradient>
<radialGradient id="paint17_radial_2027_481" cx="0" cy="0" r="1" gradientUnits="userSpaceOnUse" gradientTransform="translate(363.295 911.381) rotate(90) scale(908.304 105.838)">
<stop stop-color="#0B0928"/>
<stop offset="1" stop-color="#2C2763"/>
</radialGradient>
<radialGradient id="paint18_radial_2027_481" cx="0" cy="0" r="1" gradientUnits="userSpaceOnUse" gradientTransform="translate(244.633 911.647) rotate(90) scale(908.57 128.321)">
<stop stop-color="#0B0928"/>
<stop offset="1" stop-color="#2C2763"/>
</radialGradient>
<radialGradient id="paint19_radial_2027_481" cx="0" cy="0" r="1" gradientUnits="userSpaceOnUse" gradientTransform="translate(157.621 911.614) rotate(90) scale(908.537 159.286)">
<stop stop-color="#0B0928"/>
<stop offset="1" stop-color="#2C2763"/>
</radialGradient>
<radialGradient id="paint20_radial_2027_481" cx="0" cy="0" r="1" gradientUnits="userSpaceOnUse" gradientTransform="translate(59.8229 911.581) rotate(90) scale(908.504 70.9949)">
<stop stop-color="#0B0928"/>
<stop offset="1" stop-color="#2C2763"/>
</radialGradient>
</defs>
</svg>
