<svg width="1075" height="512" viewBox="0 0 1075 512" fill="none" xmlns="http://www.w3.org/2000/svg">
<g style="mix-blend-mode:darken">
<rect width="1099" height="512" fill="url(#paint0_radial_2027_810)"/>
<rect width="1099" height="512" fill="url(#paint1_linear_2027_810)"/>
</g>
<path d="M316.108 257.52C321.42 258.544 325.356 259.632 327.916 260.784C330.54 261.936 332.428 263.664 333.58 265.968C334.796 268.208 335.404 271.472 335.404 275.76C335.404 280.56 334.54 284.336 332.812 287.088C331.084 289.84 328.364 291.824 324.652 293.04C320.94 294.192 315.884 294.768 309.484 294.768C300.844 294.768 292.844 293.808 285.484 291.888V274.8H292.108L293.74 285.84C298.86 287.056 304.204 287.664 309.772 287.664C314.508 287.664 318.092 287.312 320.524 286.608C323.02 285.904 324.716 284.816 325.612 283.344C326.508 281.808 326.956 279.728 326.956 277.104C326.956 273.904 326.572 271.664 325.804 270.384C325.036 269.104 323.5 268.112 321.196 267.408C318.892 266.704 314.444 265.744 307.852 264.528L305.452 264.048C300.204 263.088 296.14 261.936 293.26 260.592C290.444 259.184 288.428 257.36 287.212 255.12C286.06 252.88 285.484 249.904 285.484 246.192C285.484 241.648 286.316 238.064 287.98 235.44C289.708 232.752 292.396 230.832 296.044 229.68C299.692 228.528 304.556 227.952 310.636 227.952C318.124 227.952 325.868 228.784 333.868 230.448V247.248H327.532L325.996 236.592C321.132 235.568 315.884 235.056 310.252 235.056C305.836 235.056 302.444 235.408 300.076 236.112C297.708 236.752 296.076 237.776 295.18 239.184C294.348 240.528 293.932 242.384 293.932 244.752C293.932 247.696 294.348 249.808 295.18 251.088C296.076 252.368 297.676 253.36 299.98 254.064C302.348 254.768 306.732 255.728 313.132 256.944L316.108 257.52ZM401.849 245.712H396.185L393.689 235.632H361.049V257.712H380.153L381.593 250.32H386.873V272.016H381.593L380.153 264.624H361.049V287.088H393.689L396.185 276.048H401.849V294H345.689V288.72L352.793 285.84V236.976L345.689 234.192V228.72H401.849V245.712ZM443.454 234.672C437.694 234.672 433.086 235.536 429.63 237.264C426.174 238.928 423.614 241.68 421.95 245.52C420.35 249.36 419.55 254.544 419.55 261.072C419.55 267.728 420.35 273.04 421.95 277.008C423.614 280.912 426.142 283.728 429.534 285.456C432.926 287.184 437.374 288.048 442.878 288.048C446.398 288.048 450.014 287.76 453.726 287.184C457.502 286.544 460.958 285.552 464.094 284.208V291.312C461.406 292.528 458.174 293.456 454.398 294.096C450.622 294.8 446.782 295.152 442.878 295.152C421.566 295.152 410.91 283.888 410.91 261.36C410.91 249.648 413.726 241.104 419.358 235.728C424.99 230.288 433.278 227.568 444.222 227.568C450.622 227.568 457.246 228.336 464.094 229.872V246.864H457.374L455.742 235.92C451.774 235.088 447.678 234.672 443.454 234.672ZM542.635 234.192L534.571 236.976V268.368C534.571 278.16 532.459 285.136 528.235 289.296C524.075 293.392 517.643 295.44 508.939 295.44C500.043 295.44 493.291 293.392 488.683 289.296C484.075 285.136 481.771 278.384 481.771 269.04V236.976L474.667 234.192V228.72H497.131V234.192L490.027 236.976V268.368C490.027 273.424 490.699 277.424 492.043 280.368C493.451 283.248 495.531 285.296 498.283 286.512C501.099 287.728 504.779 288.336 509.323 288.336C513.611 288.336 517.067 287.792 519.691 286.704C522.315 285.552 524.299 283.6 525.643 280.848C526.987 278.032 527.659 274.096 527.659 269.04V236.976L519.883 234.192V228.72H542.635V234.192ZM612.808 288.72V294H601.768L583.72 266.928H567.112V285.744L574.216 288.72V294H551.752V288.72L558.856 285.744V236.976L551.752 234.192V228.72H590.056C596.264 228.72 600.968 230.352 604.168 233.616C607.368 236.816 608.968 241.552 608.968 247.824C608.968 253.392 607.624 257.776 604.936 260.976C602.312 264.112 598.44 266 593.32 266.64L606.28 285.84L612.808 288.72ZM567.112 260.016H588.328C592.616 260.016 595.688 259.088 597.544 257.232C599.4 255.312 600.328 252.176 600.328 247.824C600.328 243.536 599.432 240.432 597.64 238.512C595.912 236.592 593.128 235.632 589.288 235.632H567.112V260.016ZM677.755 245.712H672.091L669.595 235.632H636.955V257.712H656.059L657.499 250.32H662.779V272.016H657.499L656.059 264.624H636.955V287.088H669.595L672.091 276.048H677.755V294H621.595V288.72L628.699 285.84V236.976L621.595 234.192V228.72H677.755V245.712ZM688.064 288.72L695.168 285.744V236.976L688.064 234.192V228.72H727.136C732.96 228.72 737.248 230.128 740 232.944C742.816 235.696 744.224 239.6 744.224 244.656C744.224 249.072 743.296 252.656 741.44 255.408C739.648 258.096 737.056 259.888 733.664 260.784C737.248 261.36 740.064 262.992 742.112 265.68C744.16 268.304 745.184 272.112 745.184 277.104C745.184 282.672 743.776 286.896 740.96 289.776C738.144 292.592 733.984 294 728.48 294H688.064V288.72ZM725.312 257.712C729.024 257.712 731.648 256.88 733.184 255.216C734.784 253.488 735.584 250.64 735.584 246.672C735.584 242.768 734.848 239.952 733.376 238.224C731.904 236.496 729.472 235.632 726.08 235.632H703.424V257.712H725.312ZM726.848 287.088C730.24 287.088 732.704 286.224 734.24 284.496C735.776 282.704 736.544 279.824 736.544 275.856C736.544 271.824 735.744 268.944 734.144 267.216C732.544 265.488 729.856 264.624 726.08 264.624H703.424V287.088H726.848ZM816.578 288.72V294H794.498V288.72L801.218 286.128L796.034 272.016H767.714L762.434 286.224L769.25 288.72V294H748.802V288.72L755.426 285.744L777.314 227.952H788.066L809.954 285.648L816.578 288.72ZM793.538 265.2L781.922 233.712L770.21 265.2H793.538ZM890.563 228.72V234.192L883.459 236.976V294H873.667L836.707 238.992V285.84L844.291 288.72V294H822.595V288.72L829.699 285.84V236.976L822.595 234.192V228.72H839.491L876.355 283.632V236.976L868.771 234.192V228.72H890.563ZM967.039 288.624V293.904H944.287V288.624L950.335 285.84L929.215 260.688L915.487 271.44V285.744L923.071 288.72V294H900.127V288.72L907.231 285.744V236.976L900.127 234.192V228.72H922.591V234.192L915.487 236.976V262.992L949.087 236.592L943.423 234.192V228.72H966.079V234.192L959.071 237.36L935.551 255.792L960.895 285.744L967.039 288.624Z" fill="#F2F2F2"/>
<ellipse cx="186.054" cy="257.5" rx="74.0537" ry="68.5" fill="#FFCC00"/>
<defs>
<radialGradient id="paint0_radial_2027_810" cx="0" cy="0" r="1" gradientUnits="userSpaceOnUse" gradientTransform="translate(549.5 256) rotate(90) scale(256 549.5)">
<stop stop-color="#0F1415"/>
<stop offset="1" stop-color="#0F1415" stop-opacity="0"/>
</radialGradient>
<linearGradient id="paint1_linear_2027_810" x1="549.5" y1="0" x2="549.5" y2="512" gradientUnits="userSpaceOnUse">
<stop stop-color="#0F1415" stop-opacity="0"/>
<stop offset="1" stop-color="#0F1415"/>
</linearGradient>
</defs>
</svg>
